<?xml version="1.0" encoding="UTF-8" standalone="no"?>
<!-- Generator: Adobe Illustrator 18.1.1, SVG Export Plug-In . SVG Version: 6.00 Build 0)  -->

<svg
   xmlns:dc="http://purl.org/dc/elements/1.1/"
   xmlns:cc="http://creativecommons.org/ns#"
   xmlns:rdf="http://www.w3.org/1999/02/22-rdf-syntax-ns#"
   xmlns:svg="http://www.w3.org/2000/svg"
   xmlns="http://www.w3.org/2000/svg"
   xmlns:sodipodi="http://sodipodi.sourceforge.net/DTD/sodipodi-0.dtd"
   xmlns:inkscape="http://www.inkscape.org/namespaces/inkscape"
   version="1.1"
   id="Слой_1"
   x="0px"
   y="0px"
   viewBox="0 0 1190.6 841.9"
   enable-background="new 0 0 1190.6 841.9"
   xml:space="preserve"
   sodipodi:docname="logo.svg"
   inkscape:version="0.92.1 r15371"><metadata
     id="metadata15"><rdf:RDF><cc:Work
         rdf:about=""><dc:format>image/svg+xml</dc:format><dc:type
           rdf:resource="http://purl.org/dc/dcmitype/StillImage" /></cc:Work></rdf:RDF></metadata><defs
     id="defs13" /><sodipodi:namedview
     pagecolor="#ffffff"
     bordercolor="#666666"
     borderopacity="1"
     objecttolerance="10"
     gridtolerance="10"
     guidetolerance="10"
     inkscape:pageopacity="0"
     inkscape:pageshadow="2"
     inkscape:window-width="1920"
     inkscape:window-height="1051"
     id="namedview11"
     showgrid="false"
     inkscape:zoom="0.28031832"
     inkscape:cx="595.29999"
     inkscape:cy="420.95001"
     inkscape:window-x="-9"
     inkscape:window-y="-9"
     inkscape:window-maximized="1"
     inkscape:current-layer="text8" /><rect
     x="259.8"
     y="159.8"
     fill="none"
     width="671"
     height="466"
     id="rect2" /><g
     aria-label="Big Data"
     transform="matrix(1 0 0 1 425.3102 302.6757)"
     style=""
     id="text8"><path
       d="m 136.60156,-153.86719 q 10.5625,2.84375 15.94531,8.32813 7.61719,7.71875 7.61719,17.77343 0,8.22657 -5.99219,17.0625 -5.89062,8.73438 -21.83593,20.820318 13.60937,1.21875 19.90625,4.46875 6.39843,3.25 8.9375,8.328125 2.53906,5.078125 2.53906,16.960937 v 34.9375 Q 127.5625,-21.125 102.07031,0 93.234375,-6.09375 85.3125,-8.6328125 72.515625,-12.898438 57.890625,-12.898438 q -17.976563,0 -28.84375,7.3125005 -7.3125,4.875 -7.3125,9.75 0,1.828125 2.03125,5.3828125 2.132812,3.65625 2.132812,5.789063 0,2.031249 -1.523437,3.554687 -1.523438,1.523437 -3.351563,1.523437 -2.84375,0 -5.179687,-2.742187 -2.234375,-2.640625 -2.234375,-6.90625 0,-3.9609375 2.742187,-9.0390625 Q 19.195312,-3.25 28.4375,-12.695313 q 9.34375,-9.445312 11.882812,-13.812499 2.640625,-4.367188 2.640625,-8.125 0,-4.46875 -3.046875,-7.3125 -2.945312,-2.945313 -7.515625,-2.945313 -4.164062,0 -6.804687,2.335938 -2.640625,2.335937 -3.554688,7.71875 h -3.65625 q -0.101562,-1.929688 -0.101562,-2.84375 0,-8.53125 5.6875,-14.015625 5.789062,-5.484375 15.335937,-5.484375 1.117188,0 3.453125,0.101562 Q 42.65625,-67.03125 39.8125,-71.5 q -4.46875,-7.210937 -13.609375,-7.210937 -5.6875,0 -10.054688,2.945312 -2.335937,1.523438 -4.671874,6.296875 l -3.8593755,-1.320312 q 1.015625,-9.75 7.5156255,-15.539063 6.601562,-5.789062 16.757812,-5.789062 3.757812,0 9.34375,0.609375 0.40625,-14.320318 2.640625,-20.820318 2.234375,-6.60156 7.515625,-11.98437 5.28125,-5.48437 20.007812,-15.13281 -13.914062,4.57031 -23.5625,4.57031 -6.195312,0 -16.25,-2.4375 -5.789062,-1.32031 -8.226562,-1.32031 -4.570313,0 -7.71875,3.14844 -3.148437,3.04687 -4.164062,10.96874 H 7.6171875 q 0.3046875,-9.24218 3.3515625,-15.43749 3.148438,-6.29688 9.546875,-10.05469 6.398437,-3.85938 13.507812,-3.85938 5.28125,0 17.570313,3.04688 12.289062,3.04687 19.90625,3.04687 5.585937,0 10.765625,-1.21875 5.28125,-1.21875 13.8125,-4.875 l 2.03125,4.36719 q -21.9375,10.66406 -29.25,20.82031 -7.210938,10.05469 -7.210938,26.8125 V -60.125 q 0,13.710938 -3.046875,21.328125 -3.046875,7.617188 -12.289062,17.367188 17.976562,-7.617188 24.171875,-16.351563 6.195312,-8.734375 6.195312,-25.695312 V -93.4375 q 0,-20.92188 3.65625,-29.45313 3.65625,-8.63281 13.40625,-14.72656 9.851563,-6.19531 42.859373,-16.25 z m -17.57031,9.85157 q -10.96875,4.97656 -14.82812,8.42968 -3.75782,3.45313 -5.281255,8.22656 Q 97.5,-122.6875 97.5,-111.41406 v 41.640623 q 0,11.171875 -2.03125,16.859375 -2.03125,5.585937 -7.820313,11.070312 -5.789062,5.382813 -23.460937,15.742188 9.546875,-1.421875 17.773437,-1.421875 14.015625,0 26.507813,3.859375 v -84.601568 h 4.46875 v 26.406255 q 14.01563,-8.429687 20.71875,-17.265625 6.70312,-8.9375 6.70312,-19.29688 0,-8.53125 -5.28125,-14.62499 -5.17968,-6.19532 -16.04687,-10.96875 z m -6.09375,76.781245 q 8.32813,2.945313 15.03125,2.945313 6.70312,0 15.03125,-2.945313 0,-7.007812 -3.14844,-11.273437 -3.14844,-4.265625 -11.88281,-8.023438 -11.07031,7.3125 -15.03125,9.445313 z M 143,-62.765625 q -8.53125,2.945313 -15.03125,2.945313 -7.00781,0 -15.03125,-2.945313 V -44.6875 q 7.82031,-2.84375 14.625,-2.84375 6.60156,0 15.4375,2.84375 z m 0,22.75 q -9.34375,-3.351562 -15.84375,-3.351562 -6.80469,0 -14.21875,3.351562 V -21.9375 q 4.36719,1.929688 8.22656,4.367188 Q 131.52344,-22.953125 143,-26 Z"
       style="font-size:208px;font-family:OldEnglishTextMT;fill:#ffed00"
       id="path4534" /><path
       d="m 209.52344,-143 h 12.89843 l -14.01562,21.9375 h -4.0625 z m -7.71875,34.73437 18.07812,14.929693 -8.02344,7.820312 v 55.25 q 0,8.734375 1.625,11.375 1.625,2.640625 3.35157,2.640625 1.21875,0 2.23437,-0.507812 1.42188,-0.710938 5.89063,-4.0625 l 2.4375,3.148437 L 204.34375,0 q -8.125,-5.7890625 -10.46094,-10.867188 -2.33594,-5.179687 -2.33594,-17.976562 v -56.671875 l -7.61718,-7.820312 z"
       style="font-size:208px;font-family:OldEnglishTextMT;fill:#ffed00"
       id="path4536" /><path
       d="m 285.69531,-108.26563 31.58594,14.82813 18.89062,-9.54688 v 22.851568 L 317.89062,-83.6875 v 46.109375 q 0,11.171875 1.32032,15.132813 1.72656,5.179687 7.21093,11.984374 8.83594,11.273438 8.83594,16.148438 0,4.875 -4.67187,9.34375 -4.57032,4.46875 -24.57813,13.8125 -6.80469,-2.4375 -13,-3.65625 -6.19531,-1.117188 -11.78125,-1.117188 -13.40625,0 -30.97656,4.773438 l -1.42188,-3.453125 23.96875,-28.03125 -23.96875,-17.265625 V -93.4375 q 20.10938,-4.265625 36.86719,-14.82813 z m 11.57813,24.375005 -27.82813,-9.546875 v 66.523438 l 15.13281,10.968749 12.69532,-15.234374 z m -30.57032,94.351563 q 13.20313,-2.132813 21.32813,-2.132813 7.3125,0 14.72656,1.929688 7.51563,1.929687 15.13281,5.890624 l 4.16407,-2.640624 Q 308.34375,0.7109375 303.46875,-7.2109375 q -4.875,-7.9218755 -6.19531,-17.2656245 z"
       style="font-size:208px;font-family:OldEnglishTextMT;fill:#ffed00"
       id="path4538" /><path
       d="m -36.542187,98.779694 h 4.773438 q 1.625,5.078126 5.382812,7.210936 4.875,2.84375 15.84375,2.84375 7.0078128,0 44.484375,-1.42187 22.648438,-0.91407 28.234375,-0.91407 16.859375,0 28.640625,5.78907 11.882812,5.78906 19.296872,17.77343 7.41407,11.98438 9.85157,33.00782 1.72656,14.72656 2.94531,64.89843 -19.80469,12.49219 -30.468752,21.63282 -32.296875,-9.03907 -56.976562,-9.03907 -16.757813,0 -31.0781252,4.0625 -14.3203125,3.96094 -30.3671878,12.79688 l -2.945312,-3.85938 Q -8.1046867,242.79532 7.6375008,231.52188 23.379688,220.24844 28.356251,211.41251 q 5.078125,-8.9375 5.078125,-22.64844 0,-4.97656 -0.203125,-14.72656 -0.203125,-6.80469 -0.203125,-14.11719 0,-12.89844 1.421875,-18.99219 1.523437,-6.09375 6.296875,-14.01562 h -2.640625 q -12.390625,7.10937 -16.554688,13 -4.0625,5.78906 -4.0625,14.82812 l 0.8125,36.05469 q 0,14.42187 -8.6328122,25.89844 -8.6328125,11.375 -41.4374998,32.90625 l -2.945313,-3.96094 q 16.554688,-11.57813 21.835938,-18.99219 5.2812498,-7.41406 5.2812498,-15.53906 0,-7.00781 -4.4687498,-11.88281 -4.46875,-4.97657 -9.851563,-4.97657 -2.742187,0 -5.078125,1.52344 -2.335937,1.52344 -6.296875,6.29688 l -3.25,-3.25 q 3.453125,-8.73438 9.140625,-12.79688 5.789063,-4.0625 13.8125,-4.0625 2.335938,0 5.0781253,0.50781 2.84375,0.50782 6.09375,1.52344 -0.203125,-5.89062 -0.203125,-10.25781 0,-15.94531 6.3984375,-25.89844 6.5000002,-10.05469 24.7812502,-20.92187 -16.757813,1.72656 -28.94531274,1.72656 -12.89843726,0 -22.14062526,-3.65625 -6.90625,-2.84375 -10.15625,-9.03906 -3.25,-6.29688 -3.859375,-17.164066 z m 82.265625,28.132816 q -4.367187,7.41406 -5.890625,12.89843 -2.03125,7.51563 -2.03125,14.01563 l 0.8125,40.01562 q 0,7.71875 -3.859375,15.74219 -2.945312,5.99219 -11.070312,14.625 14.828125,-2.4375 22.648437,-2.33594 l 5.789063,0.10157 v -95.0625 z m 11.578125,39 q 6.195313,4.36718 10.765625,5.99218 4.671875,1.625 10.054688,1.625 5.382812,0 10.054687,-1.625 4.671875,-1.72656 10.96875,-5.99218 -1.929687,-22.85157 -11.78125,-30.875 -9.851562,-8.125 -30.0625,-8.125 z m 0,33.51562 q 6.90625,-3.96094 11.78125,-5.38281 4.875,-1.52344 10.664063,-1.52344 5.585937,0 10.359375,1.42188 4.773437,1.32031 11.476559,5.07812 l -1.726559,-27.52344 q -6.5,3.96094 -11.273438,5.48438 -4.671875,1.42187 -10.257812,1.42187 -5.382813,0 -10.664063,-1.72656 -5.28125,-1.72656 -10.359375,-5.17969 z m 0,22.85156 q 12.390625,1.01563 20.109375,2.53907 7.820313,1.42187 24.375002,6.09375 0.20312,-15.33594 0.20312,-15.84375 0,-1.21875 -0.20312,-9.75 -6.500002,-4.46875 -11.476564,-6.19532 -4.875,-1.72656 -10.664063,-1.72656 -5.890625,0 -10.96875,1.72656 -4.976562,1.72657 -11.375,6.19532 z"
       style="font-size:208px;font-family:OldEnglishTextMT;fill:#ffed00"
       id="path4540" /><path
       d="m 215.23125,145.70157 3.65625,1.42187 q -5.48437,8.53125 -7.00781,13.10157 -1.42188,4.46875 -1.42188,12.1875 v 43.26562 q 0,10.76563 1.625,13.50781 1.72657,2.64063 4.0625,2.64063 1.21875,0 2.53907,-0.60938 0.8125,-0.50781 4.77343,-3.65625 l 2.23438,3.35157 -22.64844,18.6875 q -7.82031,-6.09375 -10.46094,-10.86719 -2.64062,-4.875 -2.94531,-13.50781 l -30.875,24.375 q -17.36719,-14.21875 -17.36719,-28.03125 0,-9.24219 3.75782,-17.36719 4.97656,-10.66406 17.16406,-24.88281 l -12.1875,-26 1.42187,-2.84375 q 3.96094,0.40625 5.89063,0.40625 11.98437,0 21.125,-9.54688 7.41406,4.36719 16.14844,7.00781 8.83593,2.64063 13.50781,2.64063 2.13281,0 3.25,-0.71094 1.11719,-0.8125 3.75781,-4.57031 z m -25.59375,19.39844 -34.73437,-10.66407 12.39062,26.20313 22.34375,10.46094 z m 0,30.16406 -24.57812,-11.47656 q -5.6875,12.39062 -5.6875,21.73437 0,16.45313 14.92968,27.11719 l 15.33594,-12.39063 z"
       style="font-size:208px;font-family:OldEnglishTextMT;fill:#ffed00"
       id="path4542" /><path
       d="m 233.00469,152.50626 28.33594,-35.03907 h 2.94531 l -1.01563,28.03125 h 20.41407 v 11.47657 h -20.41407 v 68.35156 l 11.375,8.42969 6.5,-5.07813 2.53907,3.04688 -22.34375,17.875 q -11.47657,-11.67969 -26,-15.84375 v -2.03125 q 4.0625,-2.74219 5.38281,-5.6875 1.72656,-3.75782 1.72656,-10.86719 v -58.19531 h -9.44531 z"
       style="font-size:208px;font-family:OldEnglishTextMT;fill:#ffed00"
       id="path4544" /><path
       d="m 366.7625,145.70157 3.65625,1.42187 q -5.48437,8.53125 -7.00781,13.10157 -1.42188,4.46875 -1.42188,12.1875 v 43.26562 q 0,10.76563 1.625,13.50781 1.72657,2.64063 4.0625,2.64063 1.21875,0 2.53907,-0.60938 0.8125,-0.50781 4.77343,-3.65625 l 2.23438,3.35157 -22.64844,18.6875 q -7.82031,-6.09375 -10.46094,-10.86719 -2.64062,-4.875 -2.94531,-13.50781 l -30.875,24.375 q -17.36719,-14.21875 -17.36719,-28.03125 0,-9.24219 3.75782,-17.36719 4.97656,-10.66406 17.16406,-24.88281 l -12.1875,-26 1.42187,-2.84375 q 3.96094,0.40625 5.89063,0.40625 11.98437,0 21.125,-9.54688 7.41406,4.36719 16.14844,7.00781 8.83593,2.64063 13.50781,2.64063 2.13281,0 3.25,-0.71094 1.11719,-0.8125 3.75781,-4.57031 z m -25.59375,19.39844 -34.73437,-10.66407 12.39062,26.20313 22.34375,10.46094 z m 0,30.16406 -24.57812,-11.47656 q -5.6875,12.39062 -5.6875,21.73437 0,16.45313 14.92968,27.11719 l 15.33594,-12.39063 z"
       style="font-size:208px;font-family:OldEnglishTextMT;fill:#ffed00"
       id="path4546" /></g></svg>